<mxfile host="app.diagrams.net" modified="2024-05-30T07:51:49.487Z" agent="Mozilla/5.0 (Windows NT 10.0; Win64; x64) AppleWebKit/537.36 (KHTML, like Gecko) Chrome/124.0.0.0 Safari/537.36" version="24.4.10" etag="muNrRwTxFT5yEKsLvPSB" type="github">
  <diagram name="第1頁" id="r9fKtjtj9OdG-rjST6_f">
    <mxGraphModel>
      <root>
        <mxCell id="0" />
        <mxCell id="1" parent="0" />
      </root>
    </mxGraphModel>
  </diagram>
</mxfile>
